<svg width="840" height="939" viewBox="0 0 840 939" fill="none" xmlns="http://www.w3.org/2000/svg">
<path d="M62 238.5L11 116L62 149.5L145.5 51L435 6L691 116L793 346L774 487.5L791.5 626.5L833.5 611.5L816 706.5L765 747H681.5L599.5 686.5L508 561.5L480 340.5L332 308L237 252.5H121L62 238.5Z" fill="white" stroke="black" stroke-width="10"/>
<path d="M80.5 543V244.5L128 255H243L333 308L441 332.5L454.5 473.5L194 564L80.5 543Z" fill="#1E1E1E" stroke="black" stroke-width="10"/>
<path d="M552 679.5V623L509 558L482.5 344L444.5 333.5L452.5 472.5L192 564L47 543V591.5L192 645V719L138.5 770L92.5 729.5L47 759.5L40 876.5H168.5L552 679.5Z" fill="white" stroke="black" stroke-width="10"/>
<path d="M84 737.5V605.5L190.5 640.5V716.5L143 776L94.5 725L84 737.5Z" fill="#1E1E1E" stroke="black" stroke-width="10"/>
<path d="M317 932V801.5L549.5 674V623L601.5 686.5L672.5 745.5V850L317 932Z" fill="#0085FF" stroke="black" stroke-width="10"/>
</svg>
